<svg xmlns="http://www.w3.org/2000/svg" xmlns:xlink="http://www.w3.org/1999/xlink" version="1.1" x="0px" y="0px" viewBox="0 0 100 100" style="enable-background:new 0 0 100 100;" xml:space="preserve"><g><path d="M33.1,30.3c2.8-0.3,5.3,1.8,5.5,4.6c0.3,2.8-1.7,5.3-4.5,5.6c-2.8,0.2-5.3-1.8-5.6-4.6C28.2,33.1,30.3,30.6,33.1,30.3   L33.1,30.3z M82.2,94c0.2,1.1-1.5,1.4-1.7,0.3C78,79.7,76.8,64.8,76.2,50c-0.1-1.1,1.7-1.2,1.7,0C78.5,64.7,79.7,79.5,82.2,94   L82.2,94z M59,5.9c0-1.1,1.7-1.2,1.8-0.1c0.4,6.7-0.4,9.5,7.1,10.8c13.2,2.2,24,7.8,25.4,22.4C95,57.4,95,75.7,95,94.2   c0,1.1-1.7,1.1-1.7,0c0-18.5,0-36.7-1.7-55.1c-1.3-13.7-11.6-18.7-24-20.8C58.9,16.8,59.5,13.8,59,5.9L59,5.9z M19.5,94.3   c-0.2,1.1-1.9,0.8-1.7-0.3c1.4-7.8,2.3-15.8,3-23.7c-6.1-3.2-10.9-8.6-13.5-15c-0.6,13-0.6,25.9-0.6,38.9c0,1.1-1.7,1.1-1.7,0   c0-14.6,0-29.1,0.8-43.6c-0.5-2.7-0.7-5.5-0.5-8.3c1.2-16.1,15.4-28.2,31.5-27c2.5-1.9,2.3-6.7,2.5-9.5c0-1.1,1.7-1,1.7,0.1   c-0.2,3-0.1,7.3-2,9.7c15,2.3,25.7,15.8,24.6,31c-0.4,4.9-2,9.8-4.8,14.1l12.1,14c6.4,7.4-5.2,17.6-11.7,10.2L47,70.8   c-4.6,2.3-9.7,3.2-14.7,2.8c-3.3-0.2-6.7-1.1-9.8-2.5C21.8,78.9,20.9,86.6,19.5,94.3L19.5,94.3z M36,22.3   C48.3,23.2,57.5,33.8,56.6,46c-0.9,12.3-11.5,21.5-23.7,20.6c-12.3-0.9-21.5-11.5-20.6-23.7C13.2,30.6,23.8,21.4,36,22.3L36,22.3z    M35.9,24C24.6,23.2,14.8,31.7,14,43s7.7,21.1,19,21.9c11.2,0.8,21.1-7.7,21.9-19C55.7,34.6,47.2,24.8,35.9,24L35.9,24z M48.6,70   l11.9,13.7c4.9,5.8,14-2.1,9.1-7.9L57.7,62.1C55.3,65.4,52.1,68.1,48.6,70L48.6,70z M36.4,17C21.3,15.9,8.1,27.3,7,42.5   C5.9,57.6,17.3,70.8,32.5,71.9C47.6,73,60.8,61.6,61.9,46.4C63,31.3,51.6,18.1,36.4,17L36.4,17z M38.4,44.1   c-0.2-2.8,1.8-5.3,4.6-5.6s5.3,1.8,5.6,4.6s-1.8,5.3-4.6,5.5C41.2,48.9,38.7,46.9,38.4,44.1L38.4,44.1z M40.1,43.9   c0.2,1.9,1.9,3.2,3.7,3c1.9-0.2,3.2-1.8,3.1-3.7c-0.2-1.8-1.9-3.2-3.7-3C41.3,40.4,40,42,40.1,43.9L40.1,43.9z M20.3,45.8   c-0.3-2.8,1.8-5.3,4.6-5.5c2.8-0.3,5.3,1.7,5.6,4.5c0.2,2.8-1.8,5.3-4.6,5.6C23.1,50.7,20.6,48.6,20.3,45.8L20.3,45.8z M22,45.7   c0.2,1.8,1.9,3.2,3.7,3c1.9-0.2,3.2-1.8,3.1-3.7c-0.2-1.8-1.9-3.2-3.7-3C23.2,42.1,21.9,43.8,22,45.7L22,45.7z M35,50.1   c-1.8,0.2-3.2,1.9-3,3.7c0.1,1.9,1.8,3.2,3.7,3.1c1.8-0.2,3.2-1.9,3-3.7C38.5,51.3,36.9,50,35,50.1L35,50.1z M34.9,48.4   c2.8-0.2,5.2,1.8,5.5,4.6s-1.8,5.3-4.6,5.6s-5.3-1.8-5.5-4.6C30,51.2,32.1,48.7,34.9,48.4L34.9,48.4z M33.2,32   c-1.8,0.2-3.2,1.9-3,3.7c0.2,1.9,1.8,3.2,3.7,3.1c1.9-0.2,3.2-1.9,3-3.7C36.7,33.2,35.1,31.9,33.2,32L33.2,32z"/></g></svg>
