<?xml version="1.0" encoding="UTF-8" standalone="no"?>
<svg
   width="700pt"
   height="700pt"
   version="1.1"
   viewBox="0 0 700 700"
   id="svg408"
   sodipodi:docname="noun-skin-2513489.svg"
   inkscape:version="1.2.1 (9c6d41e4, 2022-07-14)"
   xmlns:inkscape="http://www.inkscape.org/namespaces/inkscape"
   xmlns:sodipodi="http://sodipodi.sourceforge.net/DTD/sodipodi-0.dtd"
   xmlns="http://www.w3.org/2000/svg"
   xmlns:svg="http://www.w3.org/2000/svg">
  <sodipodi:namedview
     id="namedview410"
     pagecolor="#ffffff"
     bordercolor="#000000"
     borderopacity="0.25"
     inkscape:showpageshadow="2"
     inkscape:pageopacity="0.0"
     inkscape:pagecheckerboard="0"
     inkscape:deskcolor="#d1d1d1"
     inkscape:document-units="pt"
     showgrid="false"
     inkscape:zoom="0.93964286"
     inkscape:cx="466.13455"
     inkscape:cy="467.7309"
     inkscape:window-width="2560"
     inkscape:window-height="1027"
     inkscape:window-x="0"
     inkscape:window-y="25"
     inkscape:window-maximized="0"
     inkscape:current-layer="svg408" />
  <defs
     id="defs308">
    <symbol
       id="h"
       overflow="visible">
      <path
         d="m14.656-0.875c-0.76172 0.39844-1.5547 0.69531-2.375 0.89062-0.8125 0.19531-1.6641 0.29688-2.5469 0.29688-2.6562 0-4.7617-0.73828-6.3125-2.2188-1.5547-1.4883-2.3281-3.5039-2.3281-6.0469 0-2.5508 0.77344-4.5664 2.3281-6.0469 1.5508-1.4883 3.6562-2.2344 6.3125-2.2344 0.88281 0 1.7344 0.10156 2.5469 0.29688 0.82031 0.19922 1.6133 0.49609 2.375 0.89062v3.2969c-0.76172-0.51953-1.5117-0.89844-2.25-1.1406-0.74219-0.23828-1.5234-0.35938-2.3438-0.35938-1.4688 0-2.625 0.46875-3.4688 1.4062-0.83594 0.9375-1.25 2.2344-1.25 3.8906 0 1.6484 0.41406 2.9375 1.25 3.875 0.84375 0.9375 2 1.4062 3.4688 1.4062 0.82031 0 1.6016-0.11719 2.3438-0.35938 0.73828-0.23828 1.4883-0.61719 2.25-1.1406z"
         id="path230" />
    </symbol>
    <symbol
       id="c"
       overflow="visible">
      <path
         d="m10.719-8.7031c-0.33594-0.15625-0.66797-0.26953-1-0.34375-0.32422-0.082031-0.65625-0.125-1-0.125-0.98047 0-1.7344 0.32031-2.2656 0.95312-0.53125 0.625-0.79688 1.5273-0.79688 2.7031v5.5156h-3.8125v-11.969h3.8125v1.9688c0.48828-0.78125 1.0508-1.3477 1.6875-1.7031 0.64453-0.36328 1.4102-0.54688 2.2969-0.54688 0.13281 0 0.27344 0.007812 0.42188 0.015625 0.14453 0.011719 0.36328 0.03125 0.65625 0.0625z"
         id="path233" />
    </symbol>
    <symbol
       id="a"
       overflow="visible">
      <path
         d="m13.781-6.0156v1.0938h-8.9375c0.09375 0.89844 0.41406 1.5703 0.96875 2.0156 0.55078 0.44922 1.3281 0.67188 2.3281 0.67188 0.80078 0 1.625-0.11719 2.4688-0.35938 0.84375-0.23828 1.7109-0.59766 2.6094-1.0781v2.9531c-0.90625 0.33594-1.8125 0.58984-2.7188 0.76562s-1.8125 0.26562-2.7188 0.26562c-2.1562 0-3.8398-0.54688-5.0469-1.6406-1.1992-1.1016-1.7969-2.6484-1.7969-4.6406 0-1.9453 0.58594-3.4766 1.7656-4.5938 1.1758-1.125 2.8008-1.6875 4.875-1.6875 1.875 0 3.375 0.57031 4.5 1.7031 1.1328 1.125 1.7031 2.6367 1.7031 4.5312zm-3.9375-1.2656c0-0.72656-0.21484-1.3125-0.64062-1.75-0.41797-0.44531-0.96875-0.67188-1.6562-0.67188-0.74219 0-1.3438 0.21094-1.8125 0.625-0.46094 0.41797-0.74609 1.0156-0.85938 1.7969z"
         id="path236" />
    </symbol>
    <symbol
       id="m"
       overflow="visible">
      <path
         d="m7.2031-5.3906c-0.80469 0-1.4062 0.13672-1.8125 0.40625-0.39844 0.27344-0.59375 0.67188-0.59375 1.2031 0 0.48047 0.16016 0.85938 0.48438 1.1406 0.32031 0.27344 0.77344 0.40625 1.3594 0.40625 0.71875 0 1.3203-0.25391 1.8125-0.76562 0.48828-0.51953 0.73438-1.1719 0.73438-1.9531v-0.4375zm5.8438-1.4375v6.8281h-3.8594v-1.7656c-0.51172 0.71875-1.0898 1.2461-1.7344 1.5781-0.63672 0.33203-1.418 0.5-2.3438 0.5-1.2422 0-2.2461-0.35938-3.0156-1.0781-0.77344-0.72656-1.1562-1.6719-1.1562-2.8281 0-1.3945 0.47656-2.4219 1.4375-3.0781 0.96875-0.65625 2.4883-0.98438 4.5625-0.98438h2.25v-0.29688c0-0.60156-0.24219-1.0469-0.71875-1.3281-0.48047-0.28125-1.2266-0.42188-2.2344-0.42188-0.8125 0-1.5742 0.085937-2.2812 0.25-0.71094 0.15625-1.3672 0.40234-1.9688 0.73438v-2.9219c0.82031-0.19531 1.6445-0.34766 2.4688-0.45312 0.82031-0.10156 1.6484-0.15625 2.4844-0.15625 2.1562 0 3.7109 0.42969 4.6719 1.2812 0.95703 0.84375 1.4375 2.2266 1.4375 4.1406z"
         id="path239" />
    </symbol>
    <symbol
       id="b"
       overflow="visible">
      <path
         d="m6.0156-15.359v3.3906h3.9375v2.7344h-3.9375v5.0781c0 0.55469 0.10938 0.92969 0.32812 1.125 0.21875 0.19922 0.65625 0.29688 1.3125 0.29688h1.9688v2.7344h-3.2812c-1.5117 0-2.5859-0.3125-3.2188-0.9375-0.625-0.63281-0.9375-1.707-0.9375-3.2188v-5.0781h-1.9062v-2.7344h1.9062v-3.3906z"
         id="path242" />
    </symbol>
    <symbol
       id="l"
       overflow="visible">
      <path
         d="m9.9688-10.219v-6.4062h3.8594v16.625h-3.8594v-1.7344c-0.52344 0.71094-1.1016 1.2305-1.7344 1.5625-0.63672 0.32031-1.3711 0.48438-2.2031 0.48438-1.4688 0-2.6797-0.58203-3.625-1.75-0.94922-1.1758-1.4219-2.6875-1.4219-4.5312s0.47266-3.3477 1.4219-4.5156c0.94531-1.1758 2.1562-1.7656 3.625-1.7656 0.83203 0 1.5664 0.16797 2.2031 0.5 0.63281 0.32422 1.2109 0.83594 1.7344 1.5312zm-2.5156 7.75c0.82031 0 1.4453-0.29688 1.875-0.89062 0.42578-0.60156 0.64062-1.4727 0.64062-2.6094 0-1.1445-0.21484-2.0156-0.64062-2.6094-0.42969-0.59375-1.0547-0.89062-1.875-0.89062-0.8125 0-1.4336 0.29688-1.8594 0.89062-0.42969 0.59375-0.64062 1.4648-0.64062 2.6094 0 1.1367 0.21094 2.0078 0.64062 2.6094 0.42578 0.59375 1.0469 0.89062 1.8594 0.89062z"
         id="path245" />
    </symbol>
    <symbol
       id="k"
       overflow="visible">
      <path
         d="m8.2031-2.4688c0.82031 0 1.4453-0.29688 1.875-0.89062 0.42578-0.60156 0.64062-1.4727 0.64062-2.6094 0-1.1445-0.21484-2.0156-0.64062-2.6094-0.42969-0.59375-1.0547-0.89062-1.875-0.89062-0.82422 0-1.4531 0.30469-1.8906 0.90625-0.4375 0.59375-0.65625 1.4609-0.65625 2.5938 0 1.1367 0.21875 2.0078 0.65625 2.6094 0.4375 0.59375 1.0664 0.89062 1.8906 0.89062zm-2.5469-7.75c0.53125-0.69531 1.1133-1.207 1.75-1.5312 0.64453-0.33203 1.3828-0.5 2.2188-0.5 1.4688 0 2.6758 0.58984 3.625 1.7656 0.94531 1.168 1.4219 2.6719 1.4219 4.5156s-0.47656 3.3555-1.4219 4.5312c-0.94922 1.168-2.1562 1.75-3.625 1.75-0.83594 0-1.5742-0.16797-2.2188-0.5-0.63672-0.33203-1.2188-0.84766-1.75-1.5469v1.7344h-3.8125v-16.625h3.8125z"
         id="path248" />
    </symbol>
    <symbol
       id="j"
       overflow="visible">
      <path
         d="m0.26562-11.969h3.8281l3.2188 8.125 2.7344-8.125h3.8125l-5.0312 13.094c-0.5 1.332-1.0898 2.2656-1.7656 2.7969-0.66797 0.53125-1.5547 0.79688-2.6562 0.79688h-2.2188v-2.5h1.2031c0.64453 0 1.1133-0.10547 1.4062-0.3125 0.30078-0.21094 0.53125-0.57812 0.6875-1.1094l0.10938-0.34375z"
         id="path251" />
    </symbol>
    <symbol
       id="i"
       overflow="visible">
      <path
         d="m0.65625-15.953h3.9375l2.75 11.594 2.7344-11.594h3.9688l2.7344 11.594 2.75-11.594h3.9062l-3.75 15.953h-4.75l-2.8906-12.125-2.8594 12.125h-4.75z"
         id="path254" />
    </symbol>
    <symbol
       id="g"
       overflow="visible">
      <path
         d="m2.0156-15.953h11.094v3.1094h-6.9844v2.9688h6.5625v3.1094h-6.5625v3.6562h7.2188v3.1094h-11.328z"
         id="path257" />
    </symbol>
    <symbol
       id="z"
       overflow="visible">
      <path
         d="m8.3906-9.7656c0.65625 0 1.1484-0.14062 1.4844-0.42188 0.33203-0.28906 0.5-0.71094 0.5-1.2656 0-0.55078-0.16797-0.97266-0.5-1.2656-0.33594-0.28906-0.82812-0.4375-1.4844-0.4375h-2.2656v3.3906zm0.14062 6.9688c0.82031 0 1.4414-0.17188 1.8594-0.51562 0.41406-0.35156 0.625-0.88281 0.625-1.5938 0-0.6875-0.21094-1.2031-0.625-1.5469-0.40625-0.34375-1.0273-0.51562-1.8594-0.51562h-2.4062v4.1719zm3.8281-5.7344c0.88281 0.25 1.5664 0.72656 2.0469 1.4219 0.48828 0.6875 0.73438 1.5312 0.73438 2.5312 0 1.543-0.52344 2.6953-1.5625 3.4531-1.043 0.75-2.625 1.125-4.75 1.125h-6.8125v-15.953h6.1719c2.207 0 3.8047 0.33984 4.7969 1.0156 1 0.66797 1.5 1.7344 1.5 3.2031 0 0.78125-0.18359 1.4492-0.54688 2-0.36719 0.54297-0.89062 0.94531-1.5781 1.2031z"
         id="path260" />
    </symbol>
    <symbol
       id="y"
       overflow="visible">
      <path
         d="m0.10938-15.953h14.688v3.1094h-5.2812v12.844h-4.1094v-12.844h-5.2969z"
         id="path263" />
    </symbol>
    <symbol
       id="x"
       overflow="visible">
      <path
         d="m2.0156-15.953h4.1094v6.0781h6.0625v-6.0781h4.1094v15.953h-4.1094v-6.7656h-6.0625v6.7656h-4.1094z"
         id="path266" />
    </symbol>
    <symbol
       id="w"
       overflow="visible">
      <path
         d="m9.2969-13.25c-1.2617 0-2.2344 0.46484-2.9219 1.3906-0.6875 0.91797-1.0312 2.2188-1.0312 3.9062 0 1.668 0.34375 2.9648 1.0312 3.8906 0.6875 0.92969 1.6602 1.3906 2.9219 1.3906 1.2578 0 2.2344-0.46094 2.9219-1.3906 0.6875-0.92578 1.0312-2.2227 1.0312-3.8906 0-1.6875-0.34375-2.9883-1.0312-3.9062-0.6875-0.92578-1.6641-1.3906-2.9219-1.3906zm0-2.9844c2.5625 0 4.5664 0.73438 6.0156 2.2031 1.457 1.4688 2.1875 3.4961 2.1875 6.0781 0 2.5742-0.73047 4.5938-2.1875 6.0625-1.4492 1.4688-3.4531 2.2031-6.0156 2.2031s-4.5742-0.73438-6.0312-2.2031c-1.4492-1.4688-2.1719-3.4883-2.1719-6.0625 0-2.582 0.72266-4.6094 2.1719-6.0781 1.457-1.4688 3.4688-2.2031 6.0312-2.2031z"
         id="path269" />
    </symbol>
    <symbol
       id="e"
       overflow="visible">
      <path
         d="m2.0156-15.953h6.8125c2.0312 0 3.5859 0.45312 4.6719 1.3594 1.0938 0.89844 1.6406 2.1797 1.6406 3.8438 0 1.6797-0.54688 2.9688-1.6406 3.875-1.0859 0.89844-2.6406 1.3438-4.6719 1.3438h-2.7031v5.5312h-4.1094zm4.1094 2.9844v4.4531h2.2656c0.80078 0 1.4141-0.19141 1.8438-0.57812 0.4375-0.38281 0.65625-0.9375 0.65625-1.6562 0-0.70703-0.21875-1.2539-0.65625-1.6406-0.42969-0.38281-1.043-0.57812-1.8438-0.57812z"
         id="path272" />
    </symbol>
    <symbol
       id="v"
       overflow="visible">
      <path
         d="m13.109-15.438v3.375c-0.875-0.39453-1.7305-0.69141-2.5625-0.89062-0.83594-0.19531-1.6211-0.29688-2.3594-0.29688-0.99219 0-1.7188 0.13672-2.1875 0.40625-0.46875 0.27344-0.70312 0.6875-0.70312 1.25 0 0.42969 0.15625 0.76172 0.46875 1 0.32031 0.24219 0.89844 0.44922 1.7344 0.625l1.75 0.34375c1.7695 0.35547 3.0312 0.89844 3.7812 1.625 0.75 0.73047 1.125 1.7617 1.125 3.0938 0 1.7617-0.52734 3.0742-1.5781 3.9375-1.043 0.85547-2.6328 1.2812-4.7656 1.2812-1.0117 0-2.0273-0.10156-3.0469-0.29688-1.0234-0.1875-2.043-0.46875-3.0625-0.84375v-3.4688c1.0195 0.53125 2.0039 0.9375 2.9531 1.2188 0.95703 0.27344 1.875 0.40625 2.75 0.40625 0.90625 0 1.5938-0.14453 2.0625-0.4375 0.47656-0.30078 0.71875-0.73438 0.71875-1.2969 0-0.48828-0.16406-0.86719-0.48438-1.1406-0.32422-0.26953-0.96875-0.51562-1.9375-0.73438l-1.5938-0.35938c-1.5938-0.33203-2.7617-0.875-3.5-1.625-0.74219-0.75-1.1094-1.7578-1.1094-3.0312 0-1.582 0.50781-2.8008 1.5312-3.6562 1.0312-0.85156 2.5078-1.2812 4.4375-1.2812 0.875 0 1.7734 0.070313 2.7031 0.20312 0.92578 0.125 1.8828 0.32422 2.875 0.59375z"
         id="path275" />
    </symbol>
    <symbol
       id="f"
       overflow="visible">
      <path
         d="m2.0156-15.953h4.1094v12.844h7.2188v3.1094h-11.328z"
         id="path278" />
    </symbol>
    <symbol
       id="u"
       overflow="visible">
      <path
         d="m9.7031-16.625v2.5156h-2.1094c-0.54297 0-0.92188 0.10156-1.1406 0.29688-0.21094 0.19922-0.3125 0.53906-0.3125 1.0156v0.82812h3.2656v2.7344h-3.2656v9.2344h-3.8281v-9.2344h-1.8906v-2.7344h1.8906v-0.82812c0-1.3008 0.36328-2.2656 1.0938-2.8906 0.72656-0.625 1.8516-0.9375 3.375-0.9375z"
         id="path281" />
    </symbol>
    <symbol
       id="d"
       overflow="visible">
      <path
         d="m7.5312-9.5156c-0.84375 0-1.4922 0.30859-1.9375 0.92188-0.44922 0.60547-0.67188 1.4805-0.67188 2.625 0 1.1484 0.22266 2.0273 0.67188 2.6406 0.44531 0.60547 1.0938 0.90625 1.9375 0.90625 0.83203 0 1.4688-0.30078 1.9062-0.90625 0.44531-0.61328 0.67188-1.4922 0.67188-2.6406 0-1.1445-0.22656-2.0195-0.67188-2.625-0.4375-0.61328-1.0742-0.92188-1.9062-0.92188zm0-2.7344c2.0508 0 3.6562 0.55859 4.8125 1.6719 1.1641 1.1055 1.75 2.6406 1.75 4.6094s-0.58594 3.5117-1.75 4.625c-1.1562 1.1055-2.7617 1.6562-4.8125 1.6562-2.0625 0-3.6797-0.55078-4.8438-1.6562-1.168-1.1133-1.75-2.6562-1.75-4.625s0.58203-3.5039 1.75-4.6094c1.1641-1.1133 2.7812-1.6719 4.8438-1.6719z"
         id="path284" />
    </symbol>
    <symbol
       id="t"
       overflow="visible">
      <path
         d="m12.922-9.9688c0.48828-0.75 1.0625-1.3164 1.7188-1.7031 0.66406-0.38281 1.3984-0.57812 2.2031-0.57812 1.375 0 2.4219 0.42969 3.1406 1.2812 0.71875 0.84375 1.0781 2.0742 1.0781 3.6875v7.2812h-3.8438v-6.2344c0.007812-0.09375 0.015625-0.1875 0.015625-0.28125v-0.4375c0-0.84375-0.125-1.457-0.375-1.8438-0.25-0.38281-0.65234-0.57812-1.2031-0.57812-0.73047 0-1.293 0.30469-1.6875 0.90625-0.38672 0.59375-0.58984 1.4609-0.60938 2.5938v5.875h-3.8438v-6.2344c0-1.3203-0.11719-2.1758-0.34375-2.5625-0.23047-0.38281-0.63672-0.57812-1.2188-0.57812-0.73047 0-1.2969 0.30469-1.7031 0.90625-0.39844 0.60547-0.59375 1.4648-0.59375 2.5781v5.8906h-3.8438v-11.969h3.8438v1.75c0.46875-0.66406 1.0039-1.1719 1.6094-1.5156 0.61328-0.34375 1.2891-0.51562 2.0312-0.51562 0.82031 0 1.5508 0.19922 2.1875 0.59375 0.63281 0.39844 1.1133 0.96094 1.4375 1.6875z"
         id="path287" />
    </symbol>
    <symbol
       id="s"
       overflow="visible">
      <path
         d="m13.859-7.2812v7.2812h-3.8438v-5.5469c0-1.0508-0.027344-1.7695-0.078125-2.1562-0.042969-0.39453-0.12109-0.6875-0.23438-0.875-0.14844-0.25-0.35156-0.44141-0.60938-0.57812-0.25-0.14453-0.54297-0.21875-0.875-0.21875-0.79297 0-1.418 0.3125-1.875 0.9375-0.46094 0.61719-0.6875 1.4648-0.6875 2.5469v5.8906h-3.8125v-16.625h3.8125v6.4062c0.58203-0.69531 1.1953-1.207 1.8438-1.5312 0.64453-0.33203 1.3594-0.5 2.1406-0.5 1.3828 0 2.4297 0.42969 3.1406 1.2812 0.71875 0.84375 1.0781 2.0742 1.0781 3.6875z"
         id="path290" />
    </symbol>
    <symbol
       id="r"
       overflow="visible">
      <path
         d="m2.0156-15.953h4.5781l5.8125 10.938v-10.938h3.8906v15.953h-4.5938l-5.7969-10.938v10.938h-3.8906z"
         id="path293" />
    </symbol>
    <symbol
       id="q"
       overflow="visible">
      <path
         d="m1.7031-4.6562v-7.3125h3.8438v1.2031c0 0.64844-0.007813 1.4609-0.015625 2.4375v1.9688c0 0.96094 0.023438 1.6523 0.078125 2.0781 0.050781 0.41797 0.13281 0.72656 0.25 0.92188 0.15625 0.25 0.35938 0.44531 0.60938 0.57812 0.25781 0.13672 0.55078 0.20312 0.875 0.20312 0.80078 0 1.4258-0.30469 1.875-0.92188 0.45703-0.61328 0.6875-1.4688 0.6875-2.5625v-5.9062h3.8281v11.969h-3.8281v-1.7344c-0.57422 0.69922-1.1836 1.2148-1.8281 1.5469-0.64844 0.33203-1.3555 0.5-2.125 0.5-1.3867 0-2.4453-0.42188-3.1719-1.2656-0.71875-0.85156-1.0781-2.0859-1.0781-3.7031z"
         id="path296" />
    </symbol>
    <symbol
       id="p"
       overflow="visible">
      <path
         d="m13.859-7.2812v7.2812h-3.8438v-5.5781c0-1.0312-0.027344-1.7383-0.078125-2.125-0.042969-0.39453-0.12109-0.6875-0.23438-0.875-0.14844-0.25-0.35156-0.44141-0.60938-0.57812-0.25-0.14453-0.54297-0.21875-0.875-0.21875-0.79297 0-1.418 0.3125-1.875 0.9375-0.46094 0.61719-0.6875 1.4648-0.6875 2.5469v5.8906h-3.8125v-11.969h3.8125v1.75c0.58203-0.69531 1.1953-1.207 1.8438-1.5312 0.64453-0.33203 1.3594-0.5 2.1406-0.5 1.3828 0 2.4297 0.42969 3.1406 1.2812 0.71875 0.84375 1.0781 2.0742 1.0781 3.6875z"
         id="path299" />
    </symbol>
    <symbol
       id="o"
       overflow="visible">
      <path
         d="m1.8438-11.969h3.8125v11.75c0 1.6016-0.38672 2.8281-1.1562 3.6719-0.76172 0.84375-1.8711 1.2656-3.3281 1.2656h-1.8906v-2.5h0.65625c0.72656 0 1.2266-0.16797 1.5-0.5 0.26953-0.32422 0.40625-0.96875 0.40625-1.9375zm0-4.6562h3.8125v3.125h-3.8125z"
         id="path302" />
    </symbol>
    <symbol
       id="n"
       overflow="visible">
      <path
         d="m11.5-11.594v3.125c-0.52344-0.35156-1.043-0.61328-1.5625-0.78125-0.52344-0.17578-1.0625-0.26562-1.625-0.26562-1.0742 0-1.9062 0.3125-2.5 0.9375s-0.89062 1.4961-0.89062 2.6094c0 1.1172 0.29688 1.9844 0.89062 2.6094s1.4258 0.9375 2.5 0.9375c0.59375 0 1.1562-0.085937 1.6875-0.26562 0.53906-0.17578 1.0391-0.44141 1.5-0.79688v3.125c-0.59375 0.23047-1.1992 0.39453-1.8125 0.5-0.61719 0.11328-1.2344 0.17188-1.8594 0.17188-2.1562 0-3.8438-0.55078-5.0625-1.6562-1.2188-1.1133-1.8281-2.6562-1.8281-4.625s0.60938-3.5039 1.8281-4.6094c1.2188-1.1133 2.9062-1.6719 5.0625-1.6719 0.625 0 1.2383 0.058594 1.8438 0.17188 0.61328 0.10547 1.2227 0.26562 1.8281 0.48438z"
         id="path305" />
    </symbol>
  </defs>
  <g
     id="g406">
    <path
       d="m317.29 383.38c1.7578 4.5 6.8281 6.7305 11.332 4.9805 0.53906-0.039063 1.0781 0.035156 1.5859 0.22266 1.6328 1.1289 2.8164 2.8047 3.3359 4.7227 1.7266 4.5156 6.7852 6.7773 11.301 5.0508 4.5156-1.7227 6.7773-6.7812 5.0508-11.297-2.0391-6.3477-6.5898-11.578-12.594-14.477-4.7578-2.0938-10.137-2.2852-15.031-0.53125-2.1602 0.83984-3.9023 2.5078-4.8359 4.6328s-0.98438 4.5312-0.14453 6.6953z"
       id="path310" />
    <path
       d="m361.84 398.36c2.168 0.82812 4.5742 0.76172 6.6953-0.18359 2.1211-0.94922 3.7734-2.6992 4.6016-4.8711 1.4492-3.793 3.1992-5.4297 5.2188-4.8359l-0.29688-0.10547 6.3477-16.309c-4.8945-1.7539-10.273-1.5625-15.031 0.53516-6 2.8945-10.551 8.1289-12.59 14.473-0.82812 2.168-0.76172 4.5781 0.18359 6.6953 0.94922 2.1172 2.6992 3.7734 4.8711 4.6016z"
       id="path312" />
    <path
       d="m412.7 454.35-0.011719-0.027344c-0.19531-0.64844-0.46484-1.2734-0.80469-1.8594-0.09375-0.16406-0.20312-0.30859-0.30469-0.46484-0.28516-0.4375-0.60938-0.84766-0.96875-1.2266-0.082031-0.085937-0.13281-0.19141-0.21875-0.27734-24.168-23.484-46.551-21.594-58.617-15.742-11.996-5.8086-34.18-7.6914-58.184 15.352l-0.023438 0.019532c-0.13672 0.13281-0.27344 0.23828-0.41016 0.375-0.089844 0.085937-0.14062 0.19531-0.22656 0.28516-0.34766 0.36719-0.66406 0.76953-0.94531 1.1953-0.12109 0.17969-0.24219 0.35547-0.34766 0.54297-0.0625 0.10938-0.14453 0.19922-0.19922 0.3125h0.003906c-0.19531 0.41016-0.35937 0.83203-0.48828 1.2695-0.03125 0.10156-0.085937 0.19531-0.11328 0.29688-0.18359 0.66016-0.28906 1.3398-0.3125 2.0234-0.007812 0.16016 0.011719 0.31641 0.015625 0.47656v0.003906c0.007813 0.53906 0.066406 1.0742 0.17578 1.6055 0.023438 0.10938 0.007813 0.21875 0.035156 0.32813 0.046876 0.19141 0.125 0.40625 0.17578 0.59766l0.03125 0.11328c3.7031 13.766 20.836 38.277 60.977 36.965 1.0352 0.035156 2.0508 0.050781 3.0586 0.050781 37.75-0.003906 54.016-23.648 57.602-37.051l0.035157-0.11719c0.046875-0.18359 0.12109-0.38281 0.16406-0.5625 0.027344-0.11328 0.015625-0.22266 0.035157-0.33594v0.003906c0.10156-0.51953 0.16016-1.0469 0.16797-1.5742 0.003906-0.17969 0.019532-0.35547 0.011719-0.53516-0.023437-0.6875-0.125-1.3672-0.30859-2.0273zm-66.559-2.6484v0.003906c1.9961 1.5859 4.5859 2.2227 7.0898 1.7383 1.4727-0.19922 2.8711-0.76953 4.0664-1.6562 1.3398-0.98828 11.32-7.5703 26.98 0.79688-21.895 4.875-44.562 5.1641-66.574 0.85156 16.566-9.6953 27.141-2.6875 28.438-1.7305zm6.418 27.32c-0.19922-0.007812-0.50781-0.011719-0.80469-0.011719-0.28125 0-0.55469 0.003907-0.71875 0.007813v0.003906c-10.344 0.79688-20.676-1.6445-29.57-6.9844 8.5312 1.3633 17.16 2.0352 25.797 2.0117 12.445-0.058594 24.859-1.2656 37.086-3.6016-9.2695 6.4922-20.516 9.5234-31.789 8.5781z"
       id="path314" />
    <path
       d="m170.11 349.24c10.816 62.336 40.746 119.77 85.645 164.34 23.922 23.672 53.867 44.184 87.742 46.246 1.8984 0.11719 3.7969 0.17188 5.6797 0.17188 39.258 0 75.184-24.598 102-53.297h0.003906c40.508-43.84 67.52-98.434 77.797-157.23 3.1914-0.75 6.1016-2.3828 8.4102-4.7109 2.3047-2.3242 3.9062-5.2539 4.625-8.4531 28.703-128.77-14.613-194.13-59.988-226.94 1.1016-16.531-0.34375-46.574-20.441-71.422-20.363-25.176-53.59-37.941-98.758-37.945h-0.015625c-4.1484 0-8.4609 0.10938-12.832 0.32812-4.3711-0.21875-8.6875-0.32812-12.844-0.32812-45.18 0-78.41 12.766-98.773 37.945-20.184 24.953-21.547 55.145-20.414 71.633-45.41 32.984-88.605 98.414-60.004 226.73 0.68359 3.0508 2.1758 5.8555 4.3125 8.1328 2.1406 2.2734 4.8516 3.9336 7.8516 4.8047zm268.28 145.52c-16.66 17.832-50.41 47.742-89.211 47.742-1.5352 0-3.0898-0.046875-4.6133-0.14062-24.633-1.5-50.371-15.367-76.496-41.215-42.641-42.27-70.941-96.855-80.906-156.06 4.2109-4.043 6.125-9.9219 5.0977-15.668-0.10156-0.57422-10.348-62.543 26.027-105.76 24.789-29.453 66.125-44.391 122.85-44.391h17.68 0.023438c56.871 0 98.262 15.004 123.03 44.602 36.441 43.547 25.938 104.93 25.828 105.55-0.95312 5.3789 0.67188 10.898 4.3906 14.902-9.4023 56.254-35.016 108.54-73.699 150.45zm26.402-395.52c-15.684-4.6836-31.652-8.3477-47.809-10.977 4.918-20.766 3.8984-42.5-2.9336-62.719 42.566 15.84 50.348 51.547 50.742 73.695zm-159.24-75.457c0.61719-1.1758 0.94922-2.4766 0.98047-3.8047 10.109-1.7109 20.352-2.5391 30.602-2.4727 4.1133 0 8.3945 0.11719 12.844 0.35156h0.007813c4.4531-0.23828 8.7227-0.35156 12.844-0.35156 10.27-0.066406 20.527 0.76562 30.652 2.4844 0.035156 1.332 0.375 2.6406 0.99609 3.8203 8.6719 19.496 10.453 41.363 5.0469 62.004-32.887-3.7812-66.105-3.7148-98.977 0.20312-5.3711-20.719-3.6055-42.641 5.0039-62.234zm-19.578 1.7305c-6.8633 20.281-7.8711 42.09-2.9102 62.918-16.184 2.5039-32.188 6.082-47.898 10.699 0.41406-22.168 8.2422-57.816 50.809-73.617zm-49.367 92.555s-0.074219-0.36328-0.18359-0.98047c14.07-4.4922 116.01-34.484 227.11 0.039063-0.10547 0.58203-0.17578 0.9375-0.17578 0.9375l0.39062 0.066406c48.676 30.781 88.438 92.09 61.18 214.38 0 0 30.645-170.75-166.11-170.74h-17.68c-196.71 0-166.11 170.74-166.11 170.74-27.258-122.29 12.898-183.66 61.574-214.44z"
       id="path316" />
    <path
       d="m322.77 315.82c-0.55859-2.2539-1.9883-4.1914-3.9766-5.3906-1.9883-1.1953-4.3711-1.5547-6.625-0.99609-0.32031 0.078125-32.523 7.8711-55.445-0.46875-2.1797-0.80078-4.5898-0.69922-6.6992 0.28125-2.1055 0.98047-3.7383 2.7578-4.5312 4.9414-0.79688 2.1836-0.6875 4.5938 0.29297 6.6992 0.98438 2.1055 2.7656 3.7344 4.9531 4.5234 10.215 3.4375 20.945 5.0977 31.727 4.8984 11.418-0.035156 22.797-1.3438 33.93-3.8906 4.6875-1.168 7.5391-5.9102 6.375-10.598z"
       id="path318" />
    <path
       d="m443.29 308.96c-22.922 8.3359-55.129 0.54688-55.445 0.46875-4.6914-1.1641-9.4375 1.6914-10.605 6.3789-1.1641 4.6914 1.6914 9.4375 6.3789 10.605 11.133 2.5469 22.512 3.8555 33.934 3.8906 10.777 0.19922 21.508-1.4609 31.723-4.8984 2.1875-0.78906 3.9688-2.418 4.9531-4.5234s1.0898-4.5156 0.29297-6.6992c-0.79297-2.1836-2.4258-3.9609-4.5312-4.9414-2.1094-0.98047-4.5195-1.082-6.6992-0.28125z"
       id="path320" />
    <path
       d="m311.74 273.84c4.4766 1.7891 9.5586-0.38281 11.363-4.8516 1.8047-4.4688-0.34766-9.5586-4.8125-11.379-1.8164-0.73828-44.906-17.578-88.203 24.895-3.4492 3.3867-3.5 8.9258-0.11328 12.375 3.3828 3.4531 8.9258 3.5039 12.375 0.11719 34.762-34.105 67.918-21.734 69.391-21.156z"
       id="path322" />
    <path
       d="m381.72 257.61c-4.4766 1.8242-6.6289 6.9297-4.8086 11.406 1.8242 4.4766 6.9297 6.625 11.406 4.8047 0.33594-0.14062 34.164-13.336 69.344 21.176 3.4492 3.3867 8.9922 3.3359 12.379-0.11719 1.625-1.6562 2.5234-3.8906 2.5039-6.2109-0.023438-2.3203-0.96484-4.5391-2.6211-6.1641-43.305-42.477-86.398-25.633-88.203-24.895z"
       id="path324" />
  </g>
</svg>
