<svg version="1.2" xmlns="http://www.w3.org/2000/svg" viewBox="0 0 700 700" width="700" height="700"><style></style><path fill-rule="evenodd" d="m508.1 422.2v15.3h-308.5v-1.9c-4.1-2.3-6.9-6.3-7.5-10.9-0.6-4.6 0.9-9.3 4.2-12.6l136.9-136.8 149.6-152.5 11 10.7-144.6 147.4 26.6 26.6c4.3 4.2 10 6.6 16 6.6 5.9 0 11.6-2.4 15.9-6.6l45.9-45.9-29.7-29.7 10.8-11 29.7 29.8 19.8-19.9 10.9 10.9-76.5 76.5c-9.2 9.2-22.4 13-35 10.1v2.5c-0.3 11-5 21.4-13.1 28.9-36.4 32.2-70.7 51.2-99.6 62.5zm-299.8-0.2c29.4-2.7 87.1-16.1 152.2-73.8 4.9-4.7 7.8-11.1 8-17.9 0.3-5.3-1.6-10.4-5.3-14.2l-24.6-24.5z"/></svg>