<?xml version="1.0" encoding="UTF-8" standalone="no"?>
<svg
   width="700pt"
   height="700pt"
   version="1.1"
   viewBox="0 0 700 700"
   id="svg637"
   sodipodi:docname="laser-icon.svg"
   inkscape:version="1.2.1 (9c6d41e4, 2022-07-14)"
   xmlns:inkscape="http://www.inkscape.org/namespaces/inkscape"
   xmlns:sodipodi="http://sodipodi.sourceforge.net/DTD/sodipodi-0.dtd"
   xmlns="http://www.w3.org/2000/svg"
   xmlns:svg="http://www.w3.org/2000/svg">
  <sodipodi:namedview
     id="namedview639"
     pagecolor="#ffffff"
     bordercolor="#000000"
     borderopacity="0.25"
     inkscape:showpageshadow="2"
     inkscape:pageopacity="0.0"
     inkscape:pagecheckerboard="0"
     inkscape:deskcolor="#d1d1d1"
     inkscape:document-units="pt"
     showgrid="false"
     inkscape:zoom="0.93964286"
     inkscape:cx="466.13455"
     inkscape:cy="1087.1152"
     inkscape:window-width="1390"
     inkscape:window-height="1027"
     inkscape:window-x="0"
     inkscape:window-y="25"
     inkscape:window-maximized="0"
     inkscape:current-layer="svg637" />
  <defs
     id="defs571">
    <symbol
       id="m"
       overflow="visible">
      <path
         d="m37.516-2.25c-1.9297 1.0117-3.9453 1.7734-6.0469 2.2812-2.0938 0.50781-4.2812 0.76562-6.5625 0.76562-6.793 0-12.18-1.8984-16.156-5.7031-3.9688-3.8008-5.9531-8.957-5.9531-15.469 0-6.5195 1.9844-11.68 5.9531-15.484 3.9766-3.8008 9.3633-5.7031 16.156-5.7031 2.2812 0 4.4688 0.25781 6.5625 0.76562 2.1016 0.51172 4.1172 1.2656 6.0469 2.2656v8.4531c-1.9492-1.332-3.8711-2.3047-5.7656-2.9219-1.8984-0.625-3.8906-0.9375-5.9844-0.9375-3.7617 0-6.7188 1.2031-8.875 3.6094-2.1484 2.4062-3.2188 5.7266-3.2188 9.9531 0 4.2109 1.0703 7.5156 3.2188 9.9219 2.1562 2.4062 5.1133 3.6094 8.875 3.6094 2.0938 0 4.0859-0.30469 5.9844-0.92188 1.8945-0.625 3.8164-1.5977 5.7656-2.9219z"
         id="path532" />
    </symbol>
    <symbol
       id="i"
       overflow="visible">
      <path
         d="m27.453-22.281c-0.85547-0.40625-1.7109-0.70312-2.5625-0.89062-0.84375-0.19531-1.6953-0.29688-2.5469-0.29688-2.5234 0-4.4609 0.80859-5.8125 2.4219-1.3555 1.6172-2.0312 3.9297-2.0312 6.9375v14.109h-9.7969v-30.625h9.7969v5.0312c1.25-2.0078 2.6914-3.4727 4.3281-4.3906 1.6328-0.91406 3.5859-1.375 5.8594-1.375 0.33203 0 0.6875 0.015625 1.0625 0.046875 0.38281 0.023438 0.94141 0.078125 1.6719 0.17188z"
         id="path535" />
    </symbol>
    <symbol
       id="a"
       overflow="visible">
      <path
         d="m35.281-15.391v2.7812h-22.891c0.23828 2.3047 1.0664 4.0273 2.4844 5.1719 1.4258 1.1484 3.4141 1.7188 5.9688 1.7188 2.0508 0 4.1562-0.30078 6.3125-0.90625 2.1641-0.61328 4.3906-1.5391 6.6719-2.7812v7.5469c-2.3125 0.875-4.6328 1.5391-6.9531 1.9844-2.3125 0.44531-4.625 0.67188-6.9375 0.67188-5.543 0-9.8516-1.4062-12.922-4.2188-3.0742-2.8203-4.6094-6.7734-4.6094-11.859 0-5 1.5039-8.9258 4.5156-11.781 3.0195-2.8633 7.1758-4.2969 12.469-4.2969 4.8125 0 8.6602 1.4492 11.547 4.3438 2.8945 2.8984 4.3438 6.7734 4.3438 11.625zm-10.062-3.2656c0-1.8516-0.54688-3.3477-1.6406-4.4844-1.0859-1.1445-2.5-1.7188-4.25-1.7188-1.8984 0-3.4375 0.53906-4.625 1.6094-1.1797 1.0625-1.9141 2.5938-2.2031 4.5938z"
         id="path538" />
    </symbol>
    <symbol
       id="h"
       overflow="visible">
      <path
         d="m18.438-13.781c-2.043 0-3.5781 0.35156-4.6094 1.0469-1.0312 0.6875-1.5469 1.7031-1.5469 3.0469 0 1.2422 0.41016 2.2148 1.2344 2.9219 0.83203 0.69922 1.9883 1.0469 3.4688 1.0469 1.8438 0 3.3906-0.66016 4.6406-1.9844 1.2578-1.3203 1.8906-2.9727 1.8906-4.9531v-1.125zm14.953-3.6875v17.469h-9.875v-4.5469c-1.3125 1.8672-2.793 3.2266-4.4375 4.0781-1.6367 0.84375-3.6328 1.2656-5.9844 1.2656-3.168 0-5.7422-0.92578-7.7188-2.7812-1.9805-1.8516-2.9688-4.2539-2.9688-7.2031 0-3.5938 1.2344-6.2266 3.7031-7.9062 2.4688-1.6758 6.3477-2.5156 11.641-2.5156h5.7656v-0.76562c0-1.5508-0.60938-2.6875-1.8281-3.4062s-3.125-1.0781-5.7188-1.0781c-2.0938 0-4.0469 0.21484-5.8594 0.64062-1.8047 0.41797-3.4766 1.043-5.0156 1.875v-7.4688c2.0938-0.50781 4.1953-0.89453 6.3125-1.1562 2.1133-0.25781 4.2266-0.39062 6.3438-0.39062 5.5195 0 9.5039 1.0898 11.953 3.2656 2.457 2.1797 3.6875 5.7188 3.6875 10.625z"
         id="path541" />
    </symbol>
    <symbol
       id="g"
       overflow="visible">
      <path
         d="m15.391-39.328v8.7031h10.094v7h-10.094v12.984c0 1.4297 0.28125 2.3906 0.84375 2.8906 0.57031 0.5 1.6953 0.75 3.375 0.75h5.0312v7h-8.3906c-3.8672 0-6.6055-0.80469-8.2188-2.4219-1.6172-1.6133-2.4219-4.3516-2.4219-8.2188v-12.984h-4.875v-7h4.875v-8.7031z"
         id="path544" />
    </symbol>
    <symbol
       id="f"
       overflow="visible">
      <path
         d="m25.547-26.141v-16.406h9.8438v42.547h-9.8438v-4.4375c-1.3555 1.8125-2.8438 3.1406-4.4688 3.9844-1.6172 0.83203-3.4922 1.25-5.625 1.25-3.7734 0-6.8711-1.5-9.2969-4.5-2.4297-3-3.6406-6.8594-3.6406-11.578 0-4.7266 1.2109-8.5859 3.6406-11.578 2.4258-3 5.5234-4.5 9.2969-4.5 2.1133 0 3.9844 0.42188 5.6094 1.2656 1.6328 0.84375 3.1289 2.1641 4.4844 3.9531zm-6.4531 19.828c2.0938 0 3.6914-0.76562 4.7969-2.2969 1.1016-1.5312 1.6562-3.7539 1.6562-6.6719 0-2.9141-0.55469-5.1406-1.6562-6.6719-1.1055-1.5312-2.7031-2.2969-4.7969-2.2969-2.0859 0-3.6797 0.76562-4.7812 2.2969-1.1055 1.5312-1.6562 3.7578-1.6562 6.6719 0 2.918 0.55078 5.1406 1.6562 6.6719 1.1016 1.5312 2.6953 2.2969 4.7812 2.2969z"
         id="path547" />
    </symbol>
    <symbol
       id="e"
       overflow="visible">
      <path
         d="m21-6.3125c2.0938 0 3.6914-0.76562 4.7969-2.2969 1.1016-1.5312 1.6562-3.7539 1.6562-6.6719 0-2.9141-0.55469-5.1406-1.6562-6.6719-1.1055-1.5312-2.7031-2.2969-4.7969-2.2969s-3.7031 0.77344-4.8281 2.3125c-1.1172 1.5312-1.6719 3.75-1.6719 6.6562 0 2.8984 0.55469 5.1172 1.6719 6.6562 1.125 1.543 2.7344 2.3125 4.8281 2.3125zm-6.5-19.828c1.3438-1.7891 2.832-3.1094 4.4688-3.9531 1.6445-0.84375 3.5352-1.2656 5.6719-1.2656 3.7695 0 6.8672 1.5 9.2969 4.5 2.4258 2.9922 3.6406 6.8516 3.6406 11.578 0 4.7188-1.2148 8.5781-3.6406 11.578-2.4297 3-5.5273 4.5-9.2969 4.5-2.1367 0-4.0273-0.42188-5.6719-1.2656-1.6367-0.85156-3.125-2.1758-4.4688-3.9688v4.4375h-9.7969v-42.547h9.7969z"
         id="path550" />
    </symbol>
    <symbol
       id="d"
       overflow="visible">
      <path
         d="m0.6875-30.625h9.7812l8.2344 20.781 7-20.781h9.7969l-12.891 33.531c-1.293 3.4062-2.8047 5.7852-4.5312 7.1406-1.7188 1.3633-3.9922 2.0469-6.8125 2.0469h-5.6562v-6.4375h3.0625c1.6562 0 2.8594-0.26562 3.6094-0.79688 0.75781-0.52344 1.3516-1.4648 1.7812-2.8281l0.26562-0.85938z"
         id="path553" />
    </symbol>
    <symbol
       id="c"
       overflow="visible">
      <path
         d="m5.1406-40.828h10.531v14.906l15.172-14.906h12.219l-19.656 19.328 21.688 21.5h-13.188l-16.234-16.078v16.078h-10.531z"
         id="path556" />
    </symbol>
    <symbol
       id="b"
       overflow="visible">
      <path
         d="m4.375-11.922v-18.703h9.8438v3.0625c0 1.6562-0.011719 3.7422-0.03125 6.25-0.011719 2.5-0.015625 4.1719-0.015625 5.0156 0 2.4609 0.0625 4.2305 0.1875 5.3125 0.125 1.0859 0.34375 1.875 0.65625 2.375 0.39453 0.63672 0.91406 1.125 1.5625 1.4688 0.65625 0.34375 1.3984 0.51562 2.2344 0.51562 2.0391 0 3.6445-0.78125 4.8125-2.3438 1.1641-1.5703 1.75-3.75 1.75-6.5312v-15.125h9.7969v30.625h-9.7969v-4.4375c-1.4805 1.793-3.043 3.1172-4.6875 3.9688-1.6484 0.84375-3.4648 1.2656-5.4531 1.2656-3.543 0-6.2422-1.082-8.0938-3.25-1.8438-2.1758-2.7656-5.332-2.7656-9.4688z"
         id="path559" />
    </symbol>
    <symbol
       id="l"
       overflow="visible">
      <path
         d="m4.7031-42.547h9.7969v23.156l11.266-11.234h11.375l-14.969 14.047 16.141 16.578h-11.875l-11.938-12.766v12.766h-9.7969z"
         id="path562" />
    </symbol>
    <symbol
       id="k"
       overflow="visible">
      <path
         d="m35.5-18.656v18.656h-9.8438v-14.219c0-2.6758-0.0625-4.5156-0.1875-5.5156-0.11719-1.0078-0.32031-1.75-0.60938-2.2188-0.38672-0.64453-0.90625-1.1445-1.5625-1.5-0.65625-0.35156-1.4023-0.53125-2.2344-0.53125-2.043 0-3.6484 0.79297-4.8125 2.375-1.168 1.5742-1.75 3.7578-1.75 6.5469v15.062h-9.7969v-42.547h9.7969v16.406c1.4688-1.7891 3.0312-3.1094 4.6875-3.9531 1.6641-0.84375 3.5-1.2656 5.5-1.2656 3.5391 0 6.2266 1.0859 8.0625 3.25 1.832 2.168 2.75 5.3203 2.75 9.4531z"
         id="path565" />
    </symbol>
    <symbol
       id="j"
       overflow="visible">
      <path
         d="m1.6719-40.828h10.094l7.0469 29.672 7-29.672h10.141l7 29.672 7.0625-29.672h10l-9.625 40.828h-12.141l-7.4062-31.031-7.3281 31.031h-12.141z"
         id="path568" />
    </symbol>
  </defs>
  <g
     id="g635">
    <path
       d="m442.96 254.24c-1.1211 1.1211-1.1211 2.2383-1.1211 4.4805 0 1.1211 0 3.3594 1.1211 4.4805 1.1211 1.1211 2.2383 1.1211 4.4805 1.1211 1.1211 0 3.3594 0 4.4805-1.1211 1.1211-1.1211 1.1211-2.2383 1.1211-4.4805 0-1.1211-1.1211-3.3594-1.1211-4.4805-2.2422-2.2383-6.7227-2.2383-8.9609 0z"
       id="path573" />
    <path
       d="m501.2 117.6c1.1211 1.1211 2.2383 1.1211 4.4805 1.1211 1.1211 0 3.3594-1.1211 3.3594-1.1211 2.2383-2.2383 2.2383-5.6016 0-7.8398-2.2383-2.2383-5.6016-2.2383-7.8398 0s-2.2383 5.5977 0 7.8398z"
       id="path575" />
    <path
       d="m463.12 247.52c1.1211 0 3.3594 0 4.4805-1.1211l90.719-90.719c5.6016-5.6016 7.8398-12.32 7.8398-20.16 0-7.8398-3.3594-14.559-7.8398-20.16l-12.32-12.32c-6.7188-6.7188-15.68-8.9609-24.641-7.8398-1.1211 0-3.3594 1.1211-3.3594 2.2383-1.1211 1.1211-1.1211 2.2383-1.1211 4.4805 0 3.3594 3.3594 5.6016 6.7188 4.4805 4.4805-1.1211 10.078 1.1211 14.559 4.4805l12.32 12.32c3.3594 3.3594 4.4805 6.7188 4.4805 12.32 0 4.4805-2.2383 8.9609-4.4805 12.32l-90.719 90.719c-1.1211 1.1211-2.2383 2.2383-2.2383 4.4805 0 1.1211 1.1211 3.3594 2.2383 4.4805 1.1211-1.1211 2.2422 0 3.3633 0z"
       id="path577" />
    <path
       d="m493.36 125.44c-2.2383-2.2383-5.6016-2.2383-7.8398 0l-99.68 98.559c-2.2383 2.2383-2.2383 5.6016 0 7.8398l43.68 43.68c1.1211 1.1211 2.2383 1.1211 4.4805 1.1211 1.1211 0 3.3594-1.1211 4.4805-1.1211 2.2383-2.2383 2.2383-5.6016 0-7.8398l-39.199-39.199 95.199-95.199c0-2.2422 0-5.6016-1.1211-7.8398z"
       id="path579" />
    <path
       d="m401.52 296.8c8.9609 0 19.039-3.3594 25.762-11.199 2.2383-2.2383 2.2383-5.6016 0-7.8398s-5.6016-2.2383-7.8398 0c-10.078 10.078-25.762 10.078-35.84 0-10.078-10.078-10.078-25.762 0-35.84 2.2383-2.2383 2.2383-5.6016 0-7.8398-2.2383-2.2383-5.6016-2.2383-7.8398 0-14.559 14.559-14.559 36.961 0 51.52 6.7188 7.8398 16.797 11.199 25.758 11.199z"
       id="path581" />
    <path
       d="m364.56 296.8c-2.2383-2.2383-5.6016-2.2383-7.8398 0l-60.48 60.48c-2.2383 2.2383-2.2383 5.6016 0 7.8398 1.1211 1.1211 2.2383 1.1211 4.4805 1.1211 2.2383 0 3.3594 0 4.4805-1.1211l60.48-60.48c1.1211-2.2422 1.1211-5.6016-1.1211-7.8398z"
       id="path583" />
    <path
       d="m266 413.28c0-10.078-7.8398-17.922-17.922-17.922-10.078 0-17.922 7.8398-17.922 17.922 0 10.078 7.8398 17.922 17.922 17.922 10.082-0.003906 17.922-7.8438 17.922-17.922zm-17.922 6.7188c-3.3594 0-6.7188-3.3594-6.7188-6.7188s3.3594-6.7188 6.7188-6.7188 6.7188 3.3594 6.7188 6.7188c0.003906 3.3594-2.2383 6.7188-6.7188 6.7188z"
       id="path585" />
    <path
       d="m220.08 481.6h2.2383c1.1211 0 3.3594-1.1211 4.4805-2.2383 6.7188-6.7188 15.68-10.078 25.762-8.9609 3.3594 0 5.6016-2.2383 6.7188-4.4805 0-1.1211 0-3.3594-1.1211-4.4805s-2.2383-2.2383-3.3594-2.2383c-8.9609-1.1211-17.922 1.1211-26.879 5.6016-3.3594-15.68-15.68-26.879-30.238-30.238 4.4805-6.7188 5.6016-13.441 5.6016-21.281s-2.2383-15.68-6.7188-23.52c1.1211-1.1211 1.1211-2.2383 1.1211-3.3594 0-3.3594-3.3594-5.6016-5.6016-5.6016h-4.4805c-2.2383 0-4.4805 1.1211-5.6016 3.3594-1.1211 2.2383 0 4.4805 1.1211 6.7188 6.7188 5.6016 10.078 13.441 10.078 21.281 0 8.9609-3.3594 16.801-10.078 22.398-2.2383 2.2383-2.2383 4.4805-1.1211 6.7188 1.1211 2.2383 3.3594 3.3594 5.6016 3.3594h1.1211c15.68 0 29.121 13.441 29.121 29.121v1.1211c-1.125 3.3555-0.003906 5.5977 2.2344 6.7188z"
       id="path587" />
    <path
       d="m268.24 470.4c-1.1211 1.1211-1.1211 2.2383-1.1211 4.4805 0 1.1211 1.1211 2.2383 1.1211 3.3594 1.1211 1.1211 2.2383 1.1211 3.3594 1.1211s3.3594 0 4.4805-1.1211c2.2383-2.2383 2.2383-5.6016 0-7.8398-1.1172-2.2383-5.5977-2.2383-7.8398 0z"
       id="path589" />
    <path
       d="m283.92 460.32c5.6016-8.9609 15.68-15.68 25.762-15.68h1.1211c2.2383 0 4.4805-1.1211 5.6016-3.3594s0-4.4805-1.1211-6.7188c-6.7188-5.6016-10.078-13.441-10.078-22.398 0-8.9609 3.3594-15.68 10.078-21.281 1.1211-1.1211 2.2383-4.4805 1.1211-6.7188-1.1211-2.2383-3.3594-3.3594-5.6016-3.3594h-1.1211c-16.801 0-29.121-13.441-29.121-29.121v-1.1211c0-2.2383-1.1211-4.4805-3.3594-5.6016-2.2383-1.1211-4.4805 0-6.7188 1.1211-5.6016 6.7188-13.441 10.078-22.398 10.078-8.9609 0-16.801-3.3594-22.398-10.078-1.1211-1.1211-4.4805-2.2383-6.7188-1.1211-2.2383 1.1211-3.3594 3.3594-3.3594 5.6016v1.1211 5.6016c0 1.1211 0 3.3594 1.1211 4.4805 1.1211 1.1211 2.2383 2.2383 3.3594 2.2383 2.2383 0 4.4805-1.1211 5.6016-3.3594 6.7188 4.4805 14.559 5.6016 21.281 5.6016 7.8398 0 14.559-2.2383 21.281-5.6016 3.3594 14.559 15.68 26.879 30.238 30.238-4.4805 6.7188-5.6016 13.441-5.6016 21.281 0 7.8398 2.2383 15.68 5.6016 21.281-11.199 2.2383-21.281 10.078-26.879 20.16-1.1211 1.1211-1.1211 3.3594 0 4.4805 0 1.1211 1.1211 2.2383 2.2383 3.3594 1.1211 0 2.2383 1.1211 3.3594 1.1211 3.3477-0.007812 5.5898-1.125 6.7109-2.2461z"
       id="path591" />
    <path
       d="m214.48 381.92c1.1211-1.1211 2.2383-2.2383 2.2383-3.3594s0-3.3594-1.1211-4.4805c-2.2383-2.2383-5.6016-2.2383-7.8398 0-1.1211 1.1211-2.2383 2.2383-2.2383 3.3594s0 3.3594 1.1211 4.4805 2.2383 2.2383 4.4805 2.2383c1.1172-1.1211 2.2383-1.1211 3.3594-2.2383z"
       id="path593" />
    <path
       d="m155.12 470.4c1.1211 2.2383 3.3594 2.2383 4.4805 2.2383 1.1211 0 2.2383 0 3.3594-1.1211 2.2383-1.1211 3.3594-4.4805 2.2383-7.8398-1.1211-2.2383-5.6016-3.3594-7.8398-2.2383-3.3594 2.2422-3.3594 5.6016-2.2383 8.9609z"
       id="path595" />
    <path
       d="m145.04 449.12c1.1211 2.2383 3.3594 3.3594 5.6016 3.3594h2.2383c3.3594-1.1211 4.4805-4.4805 3.3594-6.7188-3.3594-10.078-5.6016-21.281-5.6016-31.359 0-1.1211-1.1211-3.3594-1.1211-3.3594-1.1211-1.1211-2.2383-2.2383-4.4805-2.2383l-57.113-0.003907c-3.3594 0-5.6016 2.2383-5.6016 5.6016 0 3.3594 2.2383 5.6016 5.6016 5.6016h51.52c1.1172 8.957 2.2383 19.035 5.5977 29.117z"
       id="path597" />
    <path
       d="m352.24 407.68c-2.2383 0-4.4805 1.1211-5.6016 3.3594v2.2383c0 53.762-43.68 97.441-97.441 97.441-26.879 0-51.52-10.078-70.559-30.238-2.2383-2.2383-5.6016-2.2383-7.8398 0-1.1211 1.1211-1.1211 2.2383-1.1211 4.4805 0 1.1211 1.1211 3.3594 1.1211 4.4805 21.281 21.281 49.281 33.602 78.398 33.602 58.238 0 106.4-45.922 108.64-103.04h247.52c3.3594 0 5.6016-2.2383 5.6016-5.6016 0-3.3594-2.2383-5.6016-5.6016-5.6016h-253.12z"
       id="path599" />
    <path
       d="m531.44 159.04c1.1211-1.1211 1.1211-2.2383 1.1211-4.4805 0-1.1211 0-3.3594-1.1211-4.4805-2.2383-2.2383-5.6016-2.2383-7.8398 0-1.1211 1.1211-1.1211 2.2383-1.1211 4.4805 0 1.1211 1.1211 3.3594 1.1211 4.4805 1.1211 1.1211 2.2383 1.1211 4.4805 1.1211-0.003906 1.1211 2.2383 0 3.3594-1.1211z"
       id="path601" />
    <path
       d="m515.76 166.88c-2.2383-2.2383-5.6016-2.2383-7.8398 0l-63.84 63.84c-2.2383 2.2383-2.2383 5.6016 0 7.8398 1.1211 1.1211 2.2383 1.1211 4.4805 1.1211 1.1211 0 3.3594 0 4.4805-1.1211l63.84-63.84c-0.003906-1.1172-0.003906-5.5977-1.1211-7.8398z"
       id="path603" />
  </g>
</svg>
